Coordinates
version=1
nRows=24
nColumns=24
inDegrees=yes

Units are S.I. units (second, meters, Newtons, ...)
Angles are in degrees.

endheader
time	pelvis_tilt	pelvis_list	pelvis_rotation	pelvis_tx	pelvis_ty	pelvis_tz	hip_flexion_r	hip_adduction_r	hip_rotation_r	knee_angle_r	ankle_angle_r	subtalar_angle_r	mtp_angle_r	hip_flexion_l	hip_adduction_l	hip_rotation_l	knee_angle_l	ankle_angle_l	subtalar_angle_l	mtp_angle_l	lumbar_extension	lumbar_bending	lumbar_rotation
      1.94000000	     37.51615273	      1.82948333	     -3.40325504	      0.68558715	      1.06919338	     -0.32816079	     41.23224451	     -4.10959750	      2.16576144	    -26.67156185	    -31.78267590	      0.00000000	      0.00000000	     28.85959140	    -15.96863364	     -6.99610027	    -68.66052213	    -14.33618806	      0.00000000	      0.00000000	      0.00000000	      0.00000000	      0.00000000
      1.95000000	     37.51923473	      1.81877636	     -3.40428023	      0.68558011	      1.06918636	     -0.32816664	     41.23251114	     -4.10108524	      2.16181228	    -26.67643045	    -31.78227019	      0.00000000	      0.00000000	     28.85935562	    -15.97976538	     -6.99433738	    -68.66746844	    -14.33460085	      0.00000000	      0.00000000	      0.00000000	      0.00000000	      0.00000000
      1.96000000	     37.52264205	      1.80944332	     -3.40444451	      0.68559279	      1.06917002	     -0.32816603	     41.23183196	     -4.09414141	      2.15896904	    -26.68030842	    -31.78125758	      0.00000000	      0.00000000	     28.85959607	    -15.98941124	     -6.99074038	    -68.67538298	    -14.33321458	      0.00000000	      0.00000000	      0.00000000	      0.00000000	      0.00000000
      1.97000000	     37.52563029	      1.80287080	     -3.40364482	      0.68561831	      1.06915246	     -0.32816224	     41.23042721	     -4.08996086	      2.15719976	    -26.68155083	    -31.77935441	      0.00000000	      0.00000000	     28.86061003	    -15.99548259	     -6.98635727	    -68.68305160	    -14.33221496	      0.00000000	      0.00000000	      0.00000000	      0.00000000	      0.00000000
      1.98000000	     37.52737301	      1.79999528	     -3.40154927	      0.68563158	      1.06914501	     -0.32816264	     41.22888287	     -4.08931555	      2.15630084	    -26.67945231	    -31.77666193	      0.00000000	      0.00000000	     28.86270893	    -15.99666659	     -6.98278159	    -68.68922732	    -14.33178117	      0.00000000	      0.00000000	      0.00000000	      0.00000000	      0.00000000
      1.99000000	     37.52729967	      1.80062617	     -3.39820850	      0.68561773	      1.06914975	     -0.32816970	     41.22787537	     -4.09189167	      2.15582452	    -26.67453327	    -31.77358887	      0.00000000	      0.00000000	     28.86591654	    -15.99334435	     -6.98129117	    -68.69335145	    -14.33195504	      0.00000000	      0.00000000	      0.00000000	      0.00000000	      0.00000000
      2.00000000	     37.52545389	      1.80329987	     -3.39445608	      0.68559114	      1.06915892	     -0.32817956	     41.22785758	     -4.09615174	      2.15512617	    -26.66838630	    -31.77068174	      0.00000000	      0.00000000	     28.86996914	    -15.98769983	     -6.98213100	    -68.69580222	    -14.33254404	      0.00000000	      0.00000000	      0.00000000	      0.00000000	      0.00000000
      2.01000000	     37.52253931	      1.80599026	     -3.39154886	      0.68557812	      1.06916364	     -0.32818829	     41.22891657	     -4.09991347	      2.15355598	    -26.66303999	    -31.76845983	      0.00000000	      0.00000000	     28.87447307	    -15.98278291	     -6.98447548	    -68.69756849	    -14.33316500	      0.00000000	      0.00000000	      0.00000000	      0.00000000	      0.00000000
      2.02000000	     37.51963315	      1.80713154	     -3.39039699	      0.68558634	      1.06916133	     -0.32819514	     41.23088627	     -4.10131846	      2.15071905	    -26.66012656	    -31.76730331	      0.00000000	      0.00000000	     28.87900456	    -15.98087228	     -6.98702089	    -68.69967072	    -14.33342079	      0.00000000	      0.00000000	      0.00000000	      0.00000000	      0.00000000
      2.03000000	     37.51763896	      1.80623912	     -3.39107350	      0.68559830	      1.06915308	     -0.32820009	     41.23351226	     -4.09970780	      2.14667291	    -26.66032959	    -31.76740077	      0.00000000	      0.00000000	     28.88307600	    -15.98218981	     -6.98868804	    -68.70270871	    -14.33309689	      0.00000000	      0.00000000	      0.00000000	      0.00000000	      0.00000000
      2.04000000	     37.51684624	      1.80397649	     -3.39285938	      0.68559651	      1.06913905	     -0.32820181	     41.23651708	     -4.09602300	      2.14195487	    -26.66332558	    -31.76875401	      0.00000000	      0.00000000	     28.88621895	    -15.98493845	     -6.98896726	    -68.70662793	    -14.33226083	      0.00000000	      0.00000000	      0.00000000	      0.00000000	      0.00000000
      2.05000000	     37.51690521	      1.80193487	     -3.39460453	      0.68558795	      1.06912074	     -0.32820071	     41.23960174	     -4.09245750	      2.13740154	    -26.66807789	    -31.77123590	      0.00000000	      0.00000000	     28.88829178	    -15.98650613	     -6.98784215	    -68.71061675	    -14.33122190	      0.00000000	      0.00000000	      0.00000000	      0.00000000	      0.00000000
      2.06000000	     37.51701909	      1.80208657	     -3.39510299	      0.68558948	      1.06910398	     -0.32820069	     41.24249478	     -4.09142511	      2.13384463	    -26.67323097	    -31.77465928	      0.00000000	      0.00000000	     28.88961153	    -15.98473648	     -6.98558974	    -68.71323223	    -14.33038307	      0.00000000	      0.00000000	      0.00000000	      0.00000000	      0.00000000
      2.07000000	     37.51632540	      1.80576063	     -3.39349104	      0.68559910	      1.06909727	     -0.32820421	     41.24509819	     -4.09433473	      2.13183863	    -26.67745151	    -31.77878534	      0.00000000	      0.00000000	     28.89071745	    -15.97866034	     -6.98268999	    -68.71294098	    -14.33003826	      0.00000000	      0.00000000	      0.00000000	      0.00000000	      0.00000000
      2.08000000	     37.51446311	      1.81267603	     -3.38976726	      0.68560067	      1.06910453	     -0.32820881	     41.24753636	     -4.10071458	      2.13149722	    -26.67973003	    -31.78325725	      0.00000000	      0.00000000	     28.89200208	    -15.96897255	     -6.97975725	    -68.70900512	    -14.33018792	      0.00000000	      0.00000000	      0.00000000	      0.00000000	      0.00000000
      2.09000000	     37.51187332	      1.82079659	     -3.38518058	      0.68558737	      1.06911951	     -0.32821170	     41.24991122	     -4.10806988	      2.13247794	    -26.67968905	    -31.78754025	      0.00000000	      0.00000000	     28.89344907	    -15.95830996	     -6.97736062	    -68.70221078	    -14.33045974	      0.00000000	      0.00000000	      0.00000000	      0.00000000	      0.00000000
      2.10000000	     37.50956838	      1.82698172	     -3.38203223	      0.68556975	      1.06913066	     -0.32821219	     41.25201694	     -4.11261695	      2.13416644	    -26.67774586	    -31.79096043	      0.00000000	      0.00000000	     28.89457096	    -15.95075539	     -6.97588086	    -68.69485719	    -14.33018255	      0.00000000	      0.00000000	      0.00000000	      0.00000000	      0.00000000
      2.11000000	     37.50852467	      1.82820206	     -3.38272684	      0.68556075	      1.06913320	     -0.32820894	     41.25336216	     -4.11068112	      2.13600755	    -26.67492564	    -31.79286355	      0.00000000	      0.00000000	     28.89453971	    -15.95045321	     -6.97556239	    -68.68988497	    -14.32861864	      0.00000000	      0.00000000	      0.00000000	      0.00000000	      0.00000000
      2.12000000	     37.50921302	      1.82300054	     -3.38859005	      0.68556198	      1.06913360	     -0.32819924	     41.25346864	     -4.10024597	      2.13781476	    -26.67237122	    -31.79284335	      0.00000000	      0.00000000	     28.89260432	    -15.95996527	     -6.97667191	    -68.68950956	    -14.32530158	      0.00000000	      0.00000000	      0.00000000	      0.00000000	      0.00000000
      2.13000000	     37.51162099	      1.81220479	     -3.39921202	      0.68557826	      1.06913537	     -0.32817852	     41.25230084	     -4.08203977	      2.13989884	    -26.67075048	    -31.79093178	      0.00000000	      0.00000000	     28.88860326	    -15.97891796	     -6.97963080	    -68.69407777	    -14.32034685	      0.00000000	      0.00000000	      0.00000000	      0.00000000	      0.00000000
      2.14000000	     37.51539406	      1.79863852	     -3.41257078	      0.68562085	      1.06913045	     -0.32814493	     41.25056628	     -4.05962621	      2.14294054	    -26.66986890	    -31.78763433	      0.00000000	      0.00000000	     28.88314279	    -16.00357601	     -6.98494056	    -68.70176308	    -14.31454881	      0.00000000	      0.00000000	      0.00000000	      0.00000000	      0.00000000
      2.15000000	     37.51976356	      1.78637410	     -3.42581478	      0.68567160	      1.06911679	     -0.32810910	     41.24955099	     -4.03826345	      2.14764598	    -26.66880688	    -31.78374999	      0.00000000	      0.00000000	     28.87736043	    -16.02797207	     -6.99280816	    -68.70920776	    -14.30915030	      0.00000000	      0.00000000	      0.00000000	      0.00000000	      0.00000000
      2.16000000	     37.52349317	      1.77932171	     -3.43645766	      0.68568595	      1.06910680	     -0.32808673	     41.25052272	     -4.02290323	      2.15434619	    -26.66653108	    -31.78001172	      0.00000000	      0.00000000	     28.87235121	    -16.04621725	     -7.00273578	    -68.71291004	    -14.30539341	      0.00000000	      0.00000000	      0.00000000	      0.00000000	      0.00000000
      2.17000000	     37.52516182	      1.77952778	     -3.44334386	      0.68565601	      1.06910930	     -0.32807783	     41.25410957	     -4.01632325	      2.16273810	    -26.66250985	    -31.77670380	      0.00000000	      0.00000000	     28.86860481	    -16.05475024	     -7.01342314	    -68.71079522	    -14.30411284	      0.00000000	      0.00000000	      0.00000000	      0.00000000	      0.00000000
